<?xml version="1.0" encoding="UTF-8"?>
<svg width="41px" height="41px" viewBox="0 0 41 41" version="1.1" xmlns="http://www.w3.org/2000/svg" xmlns:xlink="http://www.w3.org/1999/xlink">
    <!-- Generator: Sketch 51.2 (57519) - http://www.bohemiancoding.com/sketch -->
    <title>Logo</title>
    <desc>Created with Sketch.</desc>
    <defs></defs>
    <g id="Page-1" stroke="none" stroke-width="1" fill="none" fill-rule="evenodd">
        <g id="Example" transform="translate(-226.000000, -76.000000)" fill="#FFB84A">
            <path d="M246.5,105.28583 C242.674645,105.28583 239.420302,102.841027 238.21421,99.428664 L232.150053,99.428664 C233.314695,105.16614 237.833975,109.685438 243.571429,110.89881 L243.571429,117 C233.636853,115.371523 226,106.827647 226,96.500081 C226,90.9143798 228.233952,85.8504481 231.857143,82.1530034 L231.857143,93.571498 L238.21421,93.571498 C239.420302,90.1591354 242.674645,87.714332 246.5,87.714332 C250.325355,87.714332 253.579698,90.1591354 254.78579,93.571498 L260.849947,93.571498 C259.493227,86.8877678 253.584091,81.857166 246.5,81.857166 C243.203583,81.857166 240.161577,82.9464373 237.714286,84.7846766 L237.714286,77.9727848 C240.377104,76.7078125 243.355893,76 246.5,76 C257.821837,76 267,85.1781989 267,96.500081 C267,106.827647 259.363147,115.371523 249.428571,117 L249.428571,110.89881 C255.166025,109.685438 259.685305,105.16614 260.849947,99.428664 L254.78579,99.428664 C253.579698,102.841027 250.325355,105.28583 246.5,105.28583 Z" id="Logo"></path>
        </g>
    </g>
</svg>